<svg xmlns="http://www.w3.org/2000/svg" width="650" height="550" xml:space="preserve"><path fill="#999" stroke="#999" stroke-width="6" stroke-linecap="round" stroke-linejoin="round" d="m334.63 69.329-82.814 138.523 15.077 8.989-21.605 36.137-15.076-8.99-22.309 37.314-52.967-31.58 22.309-37.315-62.931-37.521 21.604-36.136 128.57-111.242 70.142 41.821zM198.849 176.271l53.931-90.21-77.334 76.256 23.403 13.954zM442.768 231.13l-42.269 70.702c-9.602 16.061-17.469 27.234-23.6 33.525-6.133 6.289-13.855 10.98-23.171 14.068-9.316 3.088-18.699 3.711-28.146 1.865-9.45-1.847-18.982-5.635-28.597-11.366-12.674-7.558-22.329-15.299-28.974-23.226-6.643-7.926-10.602-16.473-11.877-25.642-1.278-9.167-.918-17.802 1.081-25.906 1.999-8.101 7.461-19.616 16.384-34.542l44.226-73.975c11.636-19.463 22.033-33.039 31.191-40.721 9.155-7.683 20.486-11.465 33.992-11.345 13.502.119 27.377 4.424 41.625 12.919 11.624 6.931 20.813 15.162 27.564 24.693 6.749 9.53 10.648 18.576 11.698 27.133 1.047 8.558.188 16.984-2.577 25.281-2.765 8.297-8.949 20.478-18.55 36.537zm-42.321-49.386c6.731-11.26 10.396-18.634 11.001-22.122.602-3.489-1.105-6.433-5.124-8.828-3.935-2.347-7.437-2.392-10.502-.134-3.068 2.255-7.863 8.839-14.386 19.75l-61.838 103.433c-7.357 12.309-11.203 20.08-11.537 23.313-.334 3.236 1.468 6.025 5.401 8.37 3.932 2.346 7.396 2.398 10.395.161 2.997-2.237 7.603-8.55 13.813-18.938l62.777-105.005zM630 329.222 503.374 429.408l10.904 13.744-33.033 26.137-10.905-13.746-34.11 26.989-38.307-48.288 34.11-26.988-45.514-57.371 33.033-26.136 159.718-58.472L630 329.222zm-164.934 51.899 82.463-65.244-99.389 43.908 16.926 21.336z"/><g fill="none" stroke="#FF4900" stroke-width="22" stroke-linecap="round" stroke-linejoin="round"><path d="M187.883 402.344c-.048.033-1.914 1.632-1.966 1.667-2.257 1.47-4.504 2.95-6.757 4.426-4.804 3.15-9.61 6.297-14.418 9.439-5.737 3.751-11.474 7.498-17.2 11.263-5.087 3.346-10.175 6.692-15.277 10.013-4.449 2.894-8.874 6.348-13.594 8.746-5.57 2.833-9.1 4.599-17.613-.503-7.357-4.405-10.507-13.151-8.135-20.995l.037-.114 25.28-63.008 37.714-90.116"/><path d="m30 216.33 42.236 25.303c8.769 5.251 16.256 13.505 20.037 22.994 3.325 8.347 3.489 17.434 1.849 26.175-1.837 9.79-5.186 18.894-4.558 29.06.921 14.951 9.953 30.048 21.958 36.58l113.353 67.906s43.445 12.418 71.334-6.706l48.063-29.559M133.145 259.539l235.111 140.85"/><ellipse cx="240.472" cy="475.773" rx="46.798" ry="46.734"/></g></svg>