<?xml version="1.0" encoding="utf-8"?>
<!-- Generator: Adobe Illustrator 15.0.1, SVG Export Plug-In . SVG Version: 6.00 Build 0)  -->
<!DOCTYPE svg PUBLIC "-//W3C//DTD SVG 1.1//EN" "http://www.w3.org/Graphics/SVG/1.1/DTD/svg11.dtd">
<svg version="1.1" id="Слой_1" xmlns="http://www.w3.org/2000/svg" xmlns:xlink="http://www.w3.org/1999/xlink" x="0px" y="0px"
	 width="370px" height="370px" viewBox="0 0 370 370" enable-background="new 0 0 370 370" xml:space="preserve">
<g>
	<path fill="none" stroke="#B4B3B3" stroke-width="22" stroke-linecap="round" stroke-linejoin="round" d="M173.56,217.409
		c-0.05,0.033-1.965,1.677-2.018,1.712c-2.316,1.512-4.623,3.034-6.936,4.551c-4.931,3.237-9.864,6.472-14.8,9.702
		c-5.888,3.854-11.777,7.706-17.654,11.575c-5.222,3.439-10.444,6.879-15.682,10.292c-4.566,2.975-9.108,6.523-13.953,8.989
		c-5.717,2.911-9.341,4.727-18.079-0.517c-7.552-4.527-10.785-13.519-8.351-21.58l0.038-0.117l25.949-64.762l38.711-92.624"/>
	<path fill="none" stroke="#B4B3B3" stroke-width="22" stroke-linecap="round" stroke-linejoin="round" d="M11.5,26.218
		l43.353,26.006c9.001,5.398,16.687,13.882,20.568,23.635c3.413,8.578,3.581,17.92,1.897,26.904
		c-1.886,10.062-5.322,19.419-4.679,29.867c0.946,15.368,10.217,30.885,22.539,37.599l116.35,69.796c0,0,44.597,12.763,73.224-6.893
		l49.333-30.383"/>
	
		<line fill="none" stroke="#B4B3B3" stroke-width="22" stroke-linecap="round" stroke-linejoin="round" x1="117.374" y1="70.629" x2="358.704" y2="215.399"/>
	
		<circle fill="none" stroke="#B4B3B3" stroke-width="22" stroke-linecap="round" stroke-linejoin="round" cx="227.54" cy="292.881" r="48.036"/>
</g>
</svg>
