<?xml version="1.0" encoding="utf-8"?>
<svg version="1.1" id="Слой_3" xmlns="http://www.w3.org/2000/svg" xmlns:xlink="http://www.w3.org/1999/xlink" x="0px" y="0px"
	 viewBox="0 0 800 600" xml:space="preserve" preserveAspectRatio="xMidYMid meet">
<line fill="none" stroke="#000000" stroke-width="4" stroke-miterlimit="10" x1="64" y1="66" x2="664" y2="66"/>
<line fill="none" stroke="#000000" stroke-width="4" stroke-miterlimit="10" x1="64" y1="78" x2="664" y2="78"/>
<line fill="none" stroke="#000000" stroke-width="4" stroke-miterlimit="10" x1="64" y1="152" x2="664" y2="152"/>
<line fill="none" stroke="#000000" stroke-width="4" stroke-miterlimit="10" x1="64" y1="175" x2="664" y2="175"/>
<line fill="none" stroke="#000000" stroke-width="6" stroke-miterlimit="10" x1="64" y1="235" x2="664" y2="235"/>
<line fill="none" stroke="#C1C2C4" stroke-miterlimit="10" x1="64" y1="246.267" x2="664" y2="246.267"/>
<line fill="none" stroke="#C1C2C4" stroke-miterlimit="10" x1="64" y1="434.066" x2="664" y2="434.066"/>
<line fill="none" stroke="#000000" stroke-miterlimit="10" x1="64" y1="251.5" x2="664" y2="251.5"/>
<line fill="none" stroke="#000000" stroke-miterlimit="10" x1="64" y1="258.5" x2="664" y2="258.5"/>
<line fill="none" stroke="#C1C2C4" stroke-width="6" stroke-miterlimit="10" x1="64" y1="254.803" x2="664" y2="254.803"/>
<line fill="none" stroke="#000000" stroke-width="9" stroke-miterlimit="10" x1="64" y1="105.5" x2="664" y2="105.5"/>
<line fill="none" stroke="#000000" stroke-miterlimit="10" x1="64" y1="98.5" x2="664" y2="98.5"/>
<line fill="none" stroke="#000000" stroke-width="9" stroke-miterlimit="10" x1="64" y1="343.5" x2="664" y2="343.5"/>
<line fill="none" stroke="#000000" stroke-miterlimit="10" x1="64" y1="336.5" x2="664" y2="336.5"/>
<line fill="none" stroke="#000000" stroke-width="6" stroke-miterlimit="10" x1="64" y1="130" x2="664" y2="130"/>
<line fill="none" stroke="#000000" stroke-width="4" stroke-miterlimit="10" x1="64" y1="472" x2="664" y2="472"/>
<line fill="none" stroke="#000000" stroke-width="4" stroke-miterlimit="10" x1="64" y1="484" x2="664" y2="484"/>
<line fill="none" stroke="#000000" stroke-width="9" stroke-miterlimit="10" x1="64" y1="511.5" x2="664" y2="511.5"/>
<line fill="none" stroke="#000000" stroke-miterlimit="10" x1="64" y1="504.5" x2="664" y2="504.5"/>
<line fill="none" stroke="#000000" stroke-width="6" stroke-miterlimit="10" x1="64" y1="536" x2="664" y2="536"/>
</svg>
