<?xml version="1.0" encoding="utf-8"?>
<!-- Generator: Adobe Illustrator 15.0.1, SVG Export Plug-In . SVG Version: 6.00 Build 0)  -->
<!DOCTYPE svg PUBLIC "-//W3C//DTD SVG 1.1//EN" "http://www.w3.org/Graphics/SVG/1.1/DTD/svg11.dtd">
<svg version="1.1" id="Слой_1" xmlns="http://www.w3.org/2000/svg" xmlns:xlink="http://www.w3.org/1999/xlink" x="0px" y="0px"
	 width="200px" height="100px" viewBox="0 0 200 100" enable-background="new 0 0 200 100" xml:space="preserve">
<g>
	<g>
		<path d="M20.017,12.264c-4.326-0.151-8.663-0.314-13.009-0.489C8.365,7.763,10.039,3.824,12.039,0c-0.943,0-1.886,0-2.83,0
			C4.408,8.773,1.332,18.218,0,27.854c1.086,0.083,2.17,0.165,3.252,0.244c0.564-4.495,1.493-8.947,2.795-13.309
			c4.416,0.212,8.815,0.41,13.202,0.595c-1.025,4.513-1.689,9.094-2.036,13.701c1.421,0.096,2.84,0.189,4.256,0.28
			C22.088,19.368,24.104,9.433,28.072,0c-1.257,0-2.515,0-3.772,0C22.531,4.007,21.116,8.107,20.017,12.264z"/>
		<path d="M38.624,8.559c-5.587-0.108-10.488,4.69-11.429,11.089c-0.937,6.381,2.883,11.033,9.279,11.403
			c3.308,0.194,5.619-0.447,6.945-1.009c-0.217-0.965-0.423-1.927-0.619-2.889c-1.375,0.564-3.044,0.976-5.729,0.83
			c-3.771-0.199-6.989-2.434-6.408-7.822c4.743,0.215,9.467,0.416,14.176,0.601c0.175-1.101,0.211-1.036,0.287-1.848
			C45.43,14.88,44.906,8.675,38.624,8.559z M31.17,16.939c0.802-3.214,3.041-6.157,6.662-6.066c3.98,0.098,4.369,3.172,3.945,6.462
			C38.249,17.211,34.713,17.078,31.17,16.939z"/>
		<path d="M48.746,30.961c1.384,0.073,2.767,0.144,4.146,0.213c-0.146-10.487,0.71-21,3.473-31.175c-1.257,0-2.515,0-3.772,0
			C49.671,10.091,48.684,20.538,48.746,30.961z"/>
		<path d="M60.126,31.531c1.032,0.049,2.063,0.098,3.092,0.146C62.876,21.037,63.431,10.363,65.796,0c-0.943,0-1.886,0-2.829,0
			C60.482,10.309,59.842,20.937,60.126,31.531z"/>
		<path d="M77.965,9.189c-5.248-0.066-10.176,4.269-10.399,11.813c-0.167,7.164,4.439,11.887,9.88,12.119
			c4.913,0.214,9.765-3.354,9.572-11.958C86.883,14.099,83.491,9.258,77.965,9.189z M77.458,29.985
			c-3.592-0.139-6.275-4.026-6.186-9.012c0.06-4.286,2.24-8.747,6.376-8.675c4.158,0.067,5.606,4.989,5.672,8.914
			C83.376,26.421,80.984,30.123,77.458,29.985z"/>
		<path d="M120.652,0c-1.467,5.324-2.893,10.741-4.223,16.19c-0.996,4.188-1.73,7.818-2.188,11.462
			c-0.029-0.001-0.057-0.002-0.084-0.003c-1.041-3.678-2.211-7.435-3.523-11.548c-1.781-5.436-3.322-10.814-4.531-16.102
			c-1.428,0-2.855,0-4.284,0c-1.398,10.864-1.669,22.043-1.433,33.227c1.159,0.043,2.317,0.087,3.477,0.132
			c-0.135-4.746-0.201-9.481-0.131-14.189c0.057-4.994,0.229-9.765,0.459-14.475c0.027,0,0.053,0,0.078,0
			c0.611,4.722,1.686,8.148,3.162,12.875c1.707,5.325,3.639,10.708,5.658,16.136c0.924,0.035,1.848,0.069,2.771,0.104
			c1.16-5.456,2.357-10.913,3.631-16.333c1.096-4.614,2.008-7.926,2.77-12.711c0.025,0,0.053,0,0.078,0
			c0.178,4.79,0.723,9.716,1.301,14.433c0.609,4.953,1.313,9.953,2.037,14.983c1.213,0.046,2.424,0.093,3.637,0.14
			c-1.807-11.683-3.459-23.223-4.377-34.32C123.508,0,122.082,0,120.652,0z"/>
		<path d="M140.877,9.766c-5.332-0.045-9.281,4.636-8.488,12.831c0.785,7.801,5.666,12.951,11.227,13.187
			c4.957,0.225,9.916-3.728,8.588-13.126C151.084,14.972,146.447,9.818,140.877,9.766z M143.393,32.333
			c-3.67-0.137-6.678-4.378-7.262-9.806c-0.496-4.659,0.863-9.481,5.057-9.428c4.234,0.048,6.662,5.344,7.234,9.617
			C149.184,28.396,146.982,32.472,143.393,32.333z"/>
		<path d="M176.719,10.124c-1.9-0.023-3.055,0.588-3.977,1.729c-0.631,0.775-0.943,3.299-1.58,3.29
			c-0.027,0-0.055-0.001-0.082-0.002c-1.455-2.603-4.049-4.924-6.701-4.954c-3.311-0.036-4.703,2.215-5.387,4.746
			c-0.043-0.001-0.084-0.001-0.125-0.002c-0.277-1.273-0.559-2.54-0.846-3.799c-1.051-0.012-2.102-0.023-3.152-0.035
			c0.506,2.514,1.256,3.428,1.689,6.083c0.977,6.037,1.883,12.186,2.656,18.399c0.707,0.033,1.416,0.065,2.125,0.1
			c-0.646-5.122-1.391-10.201-2.197-15.208c-0.127-0.788,0.34-1.616,0.443-2.241c0.209-2.299,1.801-4.557,4.039-4.521
			c2.771,0.042,5.141,2.957,5.928,7.077c0.957,5.073,1.797,10.227,2.492,15.429c1.438,0.076,2.877,0.153,4.322,0.231
			c-0.74-5.409-1.656-10.767-2.721-16.032c-0.174-0.861-0.521-1.671-0.498-2.363c0.213-2.234,1.551-4.163,3.691-4.125
			c2.92,0.056,5.455,3.026,6.623,8.189c1.09,4.897,2.002,9.874,2.725,14.895c1.098,0.066,2.199,0.133,3.305,0.203
			c-0.771-5.261-1.764-10.478-2.969-15.601C184.225,12.378,179.326,10.179,176.719,10.124z"/>
		<path d="M197.049,26.608c-1.92-9.244-4.699-18.215-8.365-26.608c-1.236,0-2.471,0-3.705,0c3.738,8.354,6.764,17.269,9.021,26.469
			C195.016,26.516,196.031,26.561,197.049,26.608z"/>
		<path d="M196.625,31.588c-1.588-0.086-2.428,1.335-2.088,3.394c0.334,2.004,1.645,3.631,3.203,3.74
			c1.695,0.119,2.531-1.377,2.182-3.403C199.563,33.235,198.211,31.676,196.625,31.588z"/>
		<path d="M21.993,80.66c0.972,0.133,1.945,0.268,2.917,0.4c-3.464-9.543-5.845-19.523-7.083-29.531
			c-1.102-0.104-2.206-0.211-3.313-0.318C15.766,61.182,18.274,71.139,21.993,80.66z"/>
		<path d="M26.729,61.92c0.792,0.084,1.584,0.167,2.375,0.25c-0.367-3.555-0.626-7.135-0.771-10.727
			c-1.29-0.117-2.583-0.234-3.879-0.354C25.093,54.712,25.859,58.328,26.729,61.92z"/>
		<path d="M57.969,63.49c-1.97-0.188-3.257-0.063-4.384,0.816c-0.781,0.596-1.39,2.391-2.03,2.322
			c-0.028-0.002-0.057-0.004-0.085-0.009c-1.169-2.29-3.571-4.495-6.39-4.771c-3.514-0.342-5.212,1.434-6.036,3.482
			c-0.042-0.004-0.085-0.009-0.129-0.014c-0.228-1.09-0.45-2.182-0.666-3.275c-1.119-0.111-2.239-0.226-3.361-0.339
			c0.422,2.175,0.996,3.56,1.384,5.806c0.923,5.27,1.993,10.474,3.217,15.557c1.297,0.178,2.592,0.355,3.888,0.533
			c-0.896-4.225-1.71-8.533-2.45-12.895c-0.112-0.66-0.525-1.398-0.398-1.906c0.275-1.879,1.487-3.682,3.817-3.441
			c2.892,0.296,4.399,2.897,4.873,6.326c0.615,4.391,1.256,8.73,1.931,12.984c0.971,0.135,1.943,0.268,2.914,0.4
			c-0.616-4.402-1.215-8.896-1.804-13.443c-0.092-0.715,0.293-1.338,0.392-1.903c0.438-1.817,2.277-3.286,4.454-3.067
			c2.988,0.297,5.146,3.021,5.553,7.284c0.408,4.214,0.782,8.378,1.121,12.464c0.971,0.135,1.942,0.268,2.915,0.401
			c-0.286-4.269-0.625-8.62-1.016-13.024C64.997,66.104,60.749,63.746,57.969,63.49z"/>
		<path d="M88.478,66.318c-5.624-0.519-9.73,3.586-9.342,11.07c0.37,7.107,4.376,11.969,9.504,12.687
			c4.529,0.624,9.909-2.266,9.983-10.853C98.618,72.155,94.321,66.844,88.478,66.318z M88.883,87.058
			c-3.437-0.455-5.832-4.429-6.036-9.387c-0.161-4.25,1.417-8.616,5.744-8.199c4.372,0.423,6.318,5.566,6.33,9.476
			C94.951,84.15,92.232,87.501,88.883,87.058z"/>
		<path d="M113.066,68.422c-3.35-0.309-5.637,2.566-6.605,3.67c-0.027-0.003-0.057-0.005-0.084-0.008
			c-0.104-1.21-0.217-2.422-0.338-3.635c-1.088-0.1-2.178-0.202-3.266-0.302c0.236,2.411,0.32,3.905,0.373,6.396
			c0.113,5.826-0.037,11.588-0.525,17.199c0.973,0.135,1.943,0.268,2.912,0.4c0.453-4.662,0.662-9.429,0.672-14.251
			c0.002-0.733,0.391-1.423,0.553-1.946c0.639-2.333,2.473-4.173,4.854-3.938c3.461,0.341,4.762,3.723,4.66,7.592
			c-0.115,4.699-0.445,9.342-1.027,13.879c1.295,0.178,2.588,0.356,3.883,0.534c0.664-4.706,1.041-9.528,1.182-14.408
			C120.498,71.291,115.832,68.67,113.066,68.422z"/>
		<path d="M130.412,65.739c2.746,0.244,5.496,0.492,8.25,0.744c0.291,10.202-0.197,20.315-2.059,29.933
			c0.971,0.134,1.943,0.268,2.912,0.401c1.947-9.644,2.498-19.798,2.246-30.049c3.1,0.287,6.207,0.581,9.324,0.882
			c-0.02-1.733-0.064-3.471-0.129-5.209c-6.969-0.615-13.891-1.192-20.787-1.747C130.268,62.379,130.35,64.06,130.412,65.739z"/>
		<path d="M172.932,64.511c-1.609,5.962-3.475,11.848-5.658,17.604c-1.764,4.516-3.621,9.107-5.184,12.738
			c-0.027-0.004-0.055-0.008-0.082-0.012c0.031-3.828-0.275-8.582-1.037-13.547c-0.949-6.049-2.344-12.186-4.031-18.315
			c-1.359-0.125-2.719-0.248-4.074-0.368c3.605,12.531,5.984,25.123,5.941,36.863c1.271,0.174,2.543,0.352,3.814,0.525
			c6.264-10.998,10.85-22.862,14.365-35.075C175.633,64.785,174.281,64.646,172.932,64.511z"/>
	</g>
</g>
</svg>
