<?xml version="1.0" encoding="utf-8"?>
<!-- Generator: Adobe Illustrator 15.0.1, SVG Export Plug-In . SVG Version: 6.00 Build 0)  -->
<!DOCTYPE svg PUBLIC "-//W3C//DTD SVG 1.1//EN" "http://www.w3.org/Graphics/SVG/1.1/DTD/svg11.dtd">
<svg version="1.1" id="Слой_1" xmlns="http://www.w3.org/2000/svg" xmlns:xlink="http://www.w3.org/1999/xlink" x="0px" y="0px"
	 width="370px" height="370px" viewBox="0 0 370 370" enable-background="new 0 0 370 370" xml:space="preserve">
<g>
	<path fill="none" stroke="#b4b3b3" stroke-width="22" d="M353.364,300.817c0,30.44-24.679,55.117-55.118,55.117
		c-30.441,0-55.119-24.677-55.119-55.117c0-30.444,24.678-55.121,55.119-55.121C328.686,245.696,353.364,270.373,353.364,300.817z"
		/>
	<path fill="none" stroke="#b4b3b3" stroke-width="22" d="M126.274,185.928c0,30.44-24.678,55.118-55.118,55.118
		c-30.441,0-55.119-24.678-55.119-55.118c0-30.444,24.677-55.12,55.119-55.12C101.596,130.808,126.274,155.484,126.274,185.928z"/>
	<path fill="none" stroke="#b4b3b3" stroke-width="22" d="M243.127,69.823c0-30.44,24.679-55.118,55.119-55.118
		s55.118,24.677,55.118,55.118c0,30.444-24.678,55.12-55.118,55.12S243.127,100.267,243.127,69.823z"/>
	<line fill="none" stroke="#b4b3b3" stroke-width="22" x1="119.25" y1="212.865" x2="245.351" y2="285.28"/>
	<line fill="none" stroke="#b4b3b3" stroke-width="22" x1="119.25" y1="159.125" x2="245.351" y2="86.709"/>
</g>
</svg>
