<?xml version="1.0" encoding="utf-8"?>
<!-- Generator: Adobe Illustrator 15.0.1, SVG Export Plug-In . SVG Version: 6.00 Build 0)  -->
<!DOCTYPE svg PUBLIC "-//W3C//DTD SVG 1.1//EN" "http://www.w3.org/Graphics/SVG/1.1/DTD/svg11.dtd">
<svg version="1.1" xmlns="http://www.w3.org/2000/svg" xmlns:xlink="http://www.w3.org/1999/xlink" x="0px" y="0px" width="3543px"
	 height="3535px" viewBox="0 0 3543 3535" enable-background="new 0 0 3543 3535" xml:space="preserve">
<g id="green_bottom">
	<image overflow="visible" width="3543" height="3535" xlink:href="1_green bottom.png" >
	</image>
</g>
<g id="image">
	<image overflow="visible" width="3543" height="3535" xlink:href="89D474E4.png" >
	</image>
</g>
<g id="shadow">
	<image overflow="visible" width="3543" height="3535" xlink:href="3_shadow.png" >
	</image>
</g>
<g id="back_squares">
	<image overflow="visible" width="3543" height="3535" xlink:href="4_back squares.png" >
	</image>
</g>
<g id="red_left">
	<image overflow="visible" width="3543" height="3535" xlink:href="5_red left.png" >
	</image>
</g>
<g id="red__balls">
	<image overflow="visible" width="3543" height="3535" xlink:href="6_red  balls.png" >
	</image>
</g>
<g id="green_brash">
	<image overflow="visible" width="3543" height="3535" xlink:href="7_green brash.png" >
	</image>
</g>
<g id="black_strokes">
	<image overflow="visible" width="3543" height="3535" xlink:href="8_black strokes.png" >
	</image>
</g>
<g id="grey_trivia">
	<image overflow="visible" width="3543" height="3535" xlink:href="9_grey trivia.png" >
	</image>
</g>
<g id="black_red_trivia">
	<image overflow="visible" width="3543" height="3535" xlink:href="10_black red trivia.png" >
	</image>
</g>
<g id="green_squares">
	<image overflow="visible" width="3543" height="3535" xlink:href="11_green squares.png" >
	</image>
</g>
<g id="face">
	<image overflow="visible" width="3543" height="3535" xlink:href="12_face.png" >
	</image>
</g>
<g id="face_green">
	<image overflow="visible" width="3543" height="3535" xlink:href="13_face green.png" >
	</image>
</g>
<g id="white_stroke">
	<image overflow="visible" width="3543" height="3535" xlink:href="14_white stroke.png" >
	</image>
</g>
<g id="svg_object">
	<rect y="2577.3" fill="#C1B73D" width="3543" height="956.546"/>
	<rect x="455" y="2324" fill="#FFFFFF" width="836" height="1211"/>
	<rect y="116.602" fill="#E12A2A" width="136.581" height="2574.478"/>
	<rect x="129.636" y="384.44" fill="#5D742B" width="84.495" height="84.277"/>
	<rect x="941.019" y="467.562" fill="#5D742B" width="84.495" height="84.277"/>
	<rect x="1982.737" y="699.611" fill="#5D742B" width="84.495" height="84.277"/>
	<rect x="1450.304" y="950.132" fill="#5D742B" width="84.495" height="84.277"/>
	<rect x="518.544" y="1166.019" fill="#5D742B" width="84.495" height="84.277"/>
	<rect x="321.775" y="1772.118" fill="#5D742B" width="84.495" height="84.276"/>
	<rect x="1319.51" y="1921.045" fill="#5D742B" width="84.495" height="84.277"/>
	<rect x="1850.786" y="1657.825" fill="#5D742B" width="84.495" height="84.276"/>
	<rect x="2627.445" y="2186.574" fill="#5D742B" width="84.495" height="84.276"/>
	<rect x="3281.413" y="1593.174" fill="#5D742B" width="84.495" height="84.277"/>
	<rect x="2854.309" y="825.449" fill="#5D742B" width="84.494" height="84.276"/>
	<rect x="2404.055" y="327.871" fill="#5D742B" width="84.495" height="84.277"/>
	<rect x="2122.791" y="2530.607" fill="#5D742B" width="84.494" height="84.277"/>
	<g>
		<ellipse fill="#FF0000" cx="1310.829" cy="185.87" rx="36.46" ry="36.366"/>
		<ellipse fill="#FF0000" cx="939.283" cy="984.767" rx="36.46" ry="36.366"/>
		<ellipse fill="#FF0000" cx="520.281" cy="1766.346" rx="36.46" ry="36.366"/>
		<ellipse fill="#FF0000" cx="2609.505" cy="2050.346" rx="36.46" ry="36.366"/>
		<ellipse fill="#FF0000" cx="2286.572" cy="1316.101" rx="36.46" ry="36.366"/>
		<ellipse fill="#FF0000" cx="3137.309" cy="649.969" rx="36.46" ry="36.366"/>
	</g>
	<rect x="454.884" y="2680.689" fill="#657D2C" width="835.689" height="250.521"/>
</g>
<g id="svg_stroke_red">
	<g>
		<g>
			<g>
				<path fill="none" stroke="#CF2224" stroke-width="3" stroke-miterlimit="10" d="M2952.844,1637.549
					c0,0,27.982,45.817,4.305,108.814"/>
			</g>
			<path fill="none" stroke="#CF2224" stroke-width="3" stroke-miterlimit="10" d="M2978.674,1644.708
				c0,0,26.547,27.919,3.588,99.506"/>
			
				<ellipse fill="none" stroke="#CF2224" stroke-width="3" stroke-miterlimit="10" cx="3052.981" cy="1688.813" rx="9.54" ry="8.767"/>
			
				<ellipse fill="none" stroke="#CF2224" stroke-width="3" stroke-miterlimit="10" cx="2823.063" cy="1545.836" rx="8.206" ry="9.192"/>
			<path fill="none" stroke="#CF2224" stroke-width="3" stroke-miterlimit="10" d="M2745.507,1322.305
				c0,0,11.574,179.58,25.464,206.141"/>
			<path fill="none" stroke="#CF2224" stroke-width="3" stroke-miterlimit="10" d="M2653.479,1383.54
				c2.254,5.332-0.786,11.701-6.787,14.227c-6.004,2.527-12.696,0.253-14.95-5.079c-2.256-5.332,0.783-11.703,6.787-14.229
				C2644.53,1375.933,2651.225,1378.207,2653.479,1383.54z"/>
			<path fill="none" stroke="#CF2224" stroke-width="3" stroke-miterlimit="10" d="M2793.51,1086.765
				c0,0,84.055,46.849,107.822,60.151"/>
			<path fill="none" stroke="#CF2224" stroke-width="3" stroke-miterlimit="10" d="M2415.556,1062.473
				c0,0,8.116,72.298-48.114,131.292"/>
			
				<ellipse fill="none" stroke="#CF2224" stroke-width="3" stroke-miterlimit="10" cx="2216.589" cy="1255.702" rx="9.74" ry="9.813"/>
			<path fill="none" stroke="#CF2224" stroke-width="3" stroke-miterlimit="10" d="M1916.454,1238.475c0,0,2.93-10.36,15.176-11.422
				c12.246-1.063-3.727,17.266-3.461,16.735S1916.454,1256.538,1916.454,1238.475z"/>
			<path fill="none" stroke="#CF2224" stroke-width="3" stroke-miterlimit="10" d="M1544.183,1487.035
				c-2.966,5.931-2.252,12.29,1.594,14.204c3.847,1.915,9.367-1.342,12.333-7.273c2.965-5.931,2.25-12.291-1.595-14.205
				C1552.668,1477.847,1547.147,1481.103,1544.183,1487.035z"/>
			<path fill="none" stroke="#CF2224" stroke-width="3" stroke-miterlimit="10" d="M698.255,1593.626
				c-1.968,6.464-9.907,11.397-16.537,9.388c-6.63-2.01-6.53-8.329-4.563-14.793c1.969-6.465,10.192-10.544,16.822-8.534
				C700.607,1581.696,700.224,1587.162,698.255,1593.626z"/>
			<path fill="none" stroke="#CF2224" stroke-width="3" stroke-miterlimit="10" d="M760.126,1514.257c0,0,4.562-3.414,9.979-3.982
				c3.232-0.34,10.706-5.789,11.404,7.681c0.855,16.5-16.252,21.051-21.954,14.224
				C755.279,1527.058,756.42,1521.654,760.126,1514.257z"/>
			<path fill="none" stroke="#CF2224" stroke-width="3" stroke-miterlimit="10" d="M407.292,1328.528
				c2.538,0.403,6.713,3.227,8.478,4.338c2.622,1.651,5.133,3.561,7.576,5.462c5.916,4.606,11.032,10.681,13.644,17.788
				c0.776,2.113,1.242,4.303,1.404,6.548c0.092,1.282,0.686,6.005-0.177,6.97c-0.054,0.061-4.972,5.473-18.912-8.437
				c-5.733-5.72-11.327-11.585-15.675-18.446c-1.351-2.133-2.67-4.366-2.609-6.981c0.062-2.613,2.442-6.885,5.404-7.271
				C406.682,1328.465,406.974,1328.477,407.292,1328.528z"/>
			<path fill="none" stroke="#CF2224" stroke-width="3" stroke-miterlimit="10" d="M419.527,1262.184c0,0,14.462-7.771,12.905,9.324
				c-1.558,17.094-18.913,7.326-18.913,4.44S411.962,1267.067,419.527,1262.184z"/>
			<path fill="none" stroke="#CF2224" stroke-width="3" stroke-miterlimit="10" d="M556.624,1398.482
				c3.936-0.652,8.606,1.081,10.684,4.406c5.57,8.918-11.99,24.549-17.219,11.802c-1.862-4.541-1.224-11.026,2.548-14.386
				C553.737,1399.323,555.127,1398.73,556.624,1398.482z"/>
			
				<ellipse fill="none" stroke="#CF2224" stroke-width="3" stroke-miterlimit="10" cx="243.008" cy="745.312" rx="10.068" ry="12.271"/>
			<path fill="none" stroke="#CF2224" stroke-width="3" stroke-miterlimit="10" d="M267.161,640.719
				c0,0,29.625-28.117,58.166-36.768c28.541-8.651,49.856-8.651,49.856-8.651"/>
			<path fill="none" stroke="#CF2224" stroke-width="3" stroke-miterlimit="10" d="M264.271,618.01c0,0,26.374-28.117,53.47-34.965
				c27.096-6.849,49.856-3.965,49.856-3.965"/>
			
				<ellipse fill="none" stroke="#CF2224" stroke-width="3" stroke-miterlimit="10" cx="292.812" cy="519.603" rx="10.477" ry="11.174"/>
			<path fill="none" stroke="#CF2224" stroke-width="3" stroke-miterlimit="10" d="M532.881,953.656c0,0,20.54-15.892,48.204-24.256
				"/>
			<path fill="none" stroke="#CF2224" stroke-width="3" stroke-miterlimit="10" d="M893.097,1113.652
				c0.706-0.052,1.502,0.033,2.399,0.283c4.148,1.153,7.625,5.362,10.585,8.32c3.583,3.583,6.641,7.715,8.825,12.293
				c2.644,5.539,4.839,11.547,5.769,17.636c0.49,3.216,2.378,9.744-0.641,12.203c-3.672,2.992-8.766-2.665-11.26-4.791
				c-10.41-8.878-17.797-19.744-20.334-33.44C887.628,1121.777,887.92,1114.032,893.097,1113.652z"/>
			<path fill="none" stroke="#CF2224" stroke-width="3" stroke-miterlimit="10" d="M1782.055,1386.607
				c6.826-1.76,18.775,5.82,24.143,8.606c8.258,4.289,16.009,9.904,21.439,17.556c13.111,18.468-28.125,0.017-28.164,0
				c-6.933-3.103-17.027-8.688-20.814-15.453c-1.938-3.461-2.009-7.875,1.824-10.078
				C1780.968,1386.959,1781.494,1386.751,1782.055,1386.607z"/>
			<path fill="none" stroke="#CF2224" stroke-width="3" stroke-miterlimit="10" d="M1830.901,1481.373
				c-0.997,0.277-2.179,1.25-3.59,3.189c-3.282,4.509-4.833,9.95-6.724,15.107c-3.234,8.829-6.848,18.985-4.907,28.511
				c1.043,5.129,5.269,15.675,11.551,8.462c6.755-7.755,9.263-18.901,10.07-28.882c0.464-5.745-0.136-11.889-1.244-17.514
				C1835.188,1485.841,1833.855,1480.553,1830.901,1481.373z"/>
			<path fill="none" stroke="#CF2224" stroke-width="3" stroke-miterlimit="10" d="M1453.6,1977.264
				c1.262-1.215,4.375-0.273,5.702,0.017c2.845,0.621,5.715,0.926,8.581,1.449c3.948,0.722,7.897,1.593,11.758,2.688
				c7.996,2.266,16.255,5.725,22.235,11.657c3.133,3.107,5.422,7.154,6.181,11.539c1.593,9.205-11.511,6.361-16.293,4.812
				c-5.432-1.763-11.016-3.79-16.066-6.464c-5.105-2.704-9.565-6.492-14.42-9.605c-3.363-2.156-6.265-4.78-7.235-8.822
				c-0.353-1.47-1.428-5.237-0.823-6.708C1453.313,1977.601,1453.442,1977.414,1453.6,1977.264z"/>
			
				<ellipse fill="none" stroke="#CF2224" stroke-width="3" stroke-miterlimit="10" cx="1559.475" cy="2335.863" rx="11.555" ry="12.73"/>
			<path fill="none" stroke="#CF2224" stroke-width="3" stroke-miterlimit="10" d="M2367.879,1741.331
				c-0.027-0.004-0.055-0.009-0.084-0.014c-1.834-0.298,7.91-17.426,8.828-18.807c5.729-8.601,18.646-18.247,29.234-18.492
				c-3.425,4.579-2.942,10.71-4.787,15.895C2396.248,1733.458,2382.612,1743.612,2367.879,1741.331z"/>
			<path fill="none" stroke="#CF2224" stroke-width="3" stroke-miterlimit="10" d="M2265.316,1846.588c0,0,7.224-37.469,39-39.871
				C2336.094,1804.314,2271.576,1856.676,2265.316,1846.588z"/>
			<path fill="none" stroke="#CF2224" stroke-width="3" stroke-miterlimit="10" d="M2323.094,1708.237
				c0,5.306-4.045,11.049-9.629,11.049s-10.593-4.302-10.593-9.607c0-5.307,7.058-9.41,12.519-10.569
				C2324.446,1697.188,2323.094,1702.931,2323.094,1708.237z"/>
			<path fill="none" stroke="#CF2224" stroke-width="3" stroke-miterlimit="10" d="M1791.142,1600.634
				c-0.008-0.024-0.016-0.048-0.023-0.073c0.407,1.272-15.292,19.118-16.942,22.813c-4.104,9.188-5.064,20.44,1.514,28.757
				C1792.311,1640.944,1796.973,1618.912,1791.142,1600.634z"/>
			<path fill="none" stroke="#CF2224" stroke-width="3" stroke-miterlimit="10" d="M1028.825,1599.804
				c0,12.996-17.12,10.485-28.601,10.485c-15.482,0-27.465-5.495-27.465-10.485c0-4.991,12.551-9.037,28.033-9.037
				S1028.825,1594.813,1028.825,1599.804z"/>
			<path fill="none" stroke="#CF2224" stroke-width="3" stroke-miterlimit="10" d="M967.098,632.02
				c0.572,3.207-16.208,14.911-27.577,16.932c-11.37,2.021-32.156-1.027-32.729-4.233c-0.572-3.206,13.983-10.38,25.153-13.303
				C950.431,626.578,966.525,628.814,967.098,632.02z"/>
			<path fill="none" stroke="#CF2224" stroke-width="3" stroke-miterlimit="10" d="M743.249,336.238
				c0,0,65.972,79.681,159.722,152.433"/>
			<path fill="none" stroke="#CF2224" stroke-width="3" stroke-miterlimit="10" d="M330.084,1581.576
				c0,0,83.244,64.802,150.022,110.438"/>
			<path fill="none" stroke="#CF2224" stroke-width="3" stroke-miterlimit="10" d="M2628.912,1688.359
				c0,0,7.318,22.817-2.744,54.762"/>
		</g>
	</g>
	<rect fill="none" width="3543" height="3535"/>
</g>
<g id="svg_stroke_black">
	<path fill="none" stroke="#000000" stroke-width="3" stroke-linecap="round" stroke-linejoin="round" stroke-miterlimit="10" d="
		M1025.514,2275.635c0,0,29.516-53.701,73.499-70.446c43.984-16.745,74.078,13.858,74.078,13.858"/>
	<path fill="none" stroke="#000000" stroke-width="3" stroke-linecap="round" stroke-linejoin="round" stroke-miterlimit="10" d="
		M2959.643,143.584"/>
	<path fill="none" stroke="#000000" stroke-width="3" stroke-linecap="round" stroke-linejoin="round" stroke-miterlimit="10" d="
		M2959.643,143.584c0,0-9.554,38.593,3.468,64.289c13.021,25.696,34.435,20.788,34.435,20.788"/>
	<path fill="none" stroke="#000000" stroke-width="3" stroke-linecap="round" stroke-linejoin="round" stroke-miterlimit="10" d="
		M2950.312,1759.773c0,0-54.145-57.226-11.013-117.655c0,0,22.025,44.865,5.048,105.752l-0.624,2.019"/>
	<path fill="none" stroke="#000000" stroke-width="3" stroke-linecap="round" stroke-linejoin="round" stroke-miterlimit="10" d="
		M2388.236,1056.727c0,0,4.668,69.47-56.4,127.684c0,0-14.002-69.858,52.122-122.638l3.747-3.062"/>
	<path fill="none" stroke="#000000" stroke-width="3" stroke-linecap="round" stroke-linejoin="round" stroke-miterlimit="10" d="
		M269.92,661.109c0,0,37.413,19.105,79.833,1.764c42.421-17.342,53.91-45.852,53.91-45.852s-44.482-16.459-123.727,45.558
		l-1.373,0.883"/>
	<path fill="none" stroke="#000000" stroke-width="3" stroke-linecap="round" stroke-linejoin="round" stroke-miterlimit="10" d="
		M563.637,1927.717c0,0,35.015-30.928,48.504-38.372"/>
	<path fill="none" stroke="#000000" stroke-width="3" stroke-linecap="round" stroke-linejoin="round" stroke-miterlimit="10" d="
		M430.577,1279.287c0,0,95.491,23.386,121.534,120.682"/>
	<path fill="none" stroke="#000000" stroke-width="3" stroke-linecap="round" stroke-linejoin="round" stroke-miterlimit="10" d="
		M645.865,1551.543c0,0,2.148-34.363,26.333-37.244c19.388-2.31,24.307,10.394,24.307,10.394"/>
	
		<line fill="none" stroke="#000000" stroke-width="3" stroke-linecap="round" stroke-linejoin="round" stroke-miterlimit="10" x1="669.883" y1="1514.876" x2="684.062" y2="1580.125"/>
	<path fill="none" stroke="#000000" stroke-width="3" stroke-linecap="round" stroke-linejoin="round" stroke-miterlimit="10" d="
		M348.487,1638.104c0,0,30.888-46.575,30.423-32.44"/>
	<path fill="none" stroke="#000000" stroke-width="3" stroke-linecap="round" stroke-linejoin="round" stroke-miterlimit="10" d="
		M369.621,1649.688c0,0,10.683-24.793,24.153-33.135"/>
	<path fill="none" stroke="#000000" stroke-width="3" stroke-linecap="round" stroke-linejoin="round" stroke-miterlimit="10" d="
		M400.973,1655.018c0,0,6.503-18.769,17.883-24.793"/>
	<path fill="none" stroke="#000000" stroke-width="3" stroke-linecap="round" stroke-linejoin="round" stroke-miterlimit="10" d="
		M420.249,1667.531c0,0,11.612-19.695,21.83-26.878"/>
	<path fill="none" stroke="#000000" stroke-width="3" stroke-linecap="round" stroke-linejoin="round" stroke-miterlimit="10" d="
		M2258.069,1720.465c0,0-9.521,8.109-7.664,18.306c1.857,10.196,22.295,24.563,39.481,20.624"/>
	<path fill="none" stroke="#000000" stroke-width="3" stroke-linecap="round" stroke-linejoin="round" stroke-miterlimit="10" d="
		M2255.515,1748.04c0,0,25.315-12.745,48.075-34.295"/>
	<path fill="none" stroke="#000000" stroke-width="3" stroke-linecap="round" stroke-linejoin="round" stroke-miterlimit="10" d="
		M2734.826,1374.695c0,0,16.881-0.635,29.301-4.767"/>
	<path fill="none" stroke="#000000" stroke-width="3" stroke-linecap="round" stroke-linejoin="round" stroke-miterlimit="10" d="
		M2737.692,1395.031c0,0,20.383-3.178,25.478-0.636"/>
	<path fill="none" stroke="#000000" stroke-width="3" stroke-linecap="round" stroke-linejoin="round" stroke-miterlimit="10" d="
		M2746.292,1421.405c0,0,9.554-0.635,22.293,0.636"/>
	<path fill="none" stroke="#000000" stroke-width="3" stroke-linecap="round" stroke-linejoin="round" stroke-miterlimit="10" d="
		M2741.833,1444.601c0,0,3.504,4.13,14.65,0.953c11.146-3.178,21.655,0.635,23.247,0.635"/>
	<path fill="none" stroke="#000000" stroke-width="3" stroke-linecap="round" stroke-linejoin="round" stroke-miterlimit="10" d="
		M2791.193,1618.057c0,0,15.178,18.041,32.289,16.107c17.113-1.933,23.894-24.483,23.894-24.483"/>
	<path fill="none" stroke="#000000" stroke-width="3" stroke-linecap="round" stroke-linejoin="round" stroke-miterlimit="10" d="
		M2823.482,1634.164c4.198-19.329-1.291-82.471-1.291-82.471"/>
	<path fill="none" stroke="#000000" stroke-width="3" stroke-linecap="round" stroke-linejoin="round" stroke-miterlimit="10" d="
		M2222.622,1188.342c0,0,37.907-13.281,47.745,28.005"/>
	<path fill="none" stroke="#000000" stroke-width="3" stroke-linecap="round" stroke-linejoin="round" stroke-miterlimit="10" d="
		M2246.64,1188.053c0,0-25.465,51.68-27.49,60.918"/>
	<path fill="none" stroke="#000000" stroke-width="3" stroke-linecap="round" stroke-linejoin="round" stroke-miterlimit="10" d="
		M1776.619,753.707c0,0-13.962,12.01,5.297-57.167"/>
	<path fill="none" stroke="#000000" stroke-width="3" stroke-miterlimit="10" d="M3187.98,1379.359
		c0,0-33.098-58.628,33.712-106.867"/>
	<g>
		<path fill="none" stroke="#000000" stroke-width="3" stroke-linecap="round" stroke-linejoin="round" stroke-miterlimit="10" d="
			M808.489,269.081c0,0,116.325,91.233,229.178,415.169c0,0,89.704,203.831,115.168,568.187c0,0,15.626,252.335-8.102,472.334
			c0,0-28.358,360.313-59.031,484.46"/>
		<path fill="none" stroke="#000000" stroke-width="3" stroke-linecap="round" stroke-linejoin="round" stroke-miterlimit="10" d="
			M815.241,275.625c0,0-31.251,193.63-39.74,295.642c0,0-20.063,209.798-10.803,338.372c0,0,1.929,199.019,46.684,249.063"/>
		<path fill="none" stroke="#000000" stroke-width="3" stroke-linecap="round" stroke-linejoin="round" stroke-miterlimit="10" d="
			M625.673,1742.267c0,0,240.8-19.771,371.109-57.518c130.309-37.746,255.208-112.037,375.309-209.698
			s165.735-184.537,166.936-191.726"/>
		<path fill="none" stroke="#000000" stroke-width="3" stroke-linecap="round" stroke-linejoin="round" stroke-miterlimit="10" d="
			M642.478,1740.47c0,0,162.136-140.199,248.607-188.131c0,0,133.908-77.889,174.142-95.864s190.353-86.274,244.398-102.451
			c54.045-16.177,247.669-67.296,287.04-76.091c0,0,122.501-25.164,148.323-26.961c0,0,111.093-12.581,127.906-12.581
			s36.03-0.6,41.435,2.995"/>
		<path fill="none" stroke="#000000" stroke-width="3" stroke-linecap="round" stroke-linejoin="round" stroke-miterlimit="10" d="
			M1559.105,1477.825c0,0,87.967-214.803,115.746-251.758c0,0,102.278-182.469,127.321-214.803
			c26.236-33.875,87.195-130.883,132.723-180.927c0,0,127.321-147.82,141.211-157.059s111.889-107.786,140.44-125.494
			c28.551-17.708,178.837-136.607,226.095-159.371c44.755-21.557,131.18-65.441,182.107-87.769c0,0,91.054-37.726,104.943-41.576
			c13.89-3.849,88.739-23.867,99.542-23.867s125.006-29.256,131.951-31.566"/>
		<path fill="none" stroke="#000000" stroke-width="3" stroke-miterlimit="10" d="M1671.089,2369.348
			c0,0,114.691-232.497,273.073-416.858c0,0,228.472-264.28,459.673-383.253c0,0,102.521-59.115,120.452-64.396
			c17.931-5.281,235.109-104.583,330.021-124.215c71.566-14.804,184.615-54.278,324.669-42.729"/>
		<path fill="none" stroke="#000000" stroke-width="3" stroke-miterlimit="10" d="M1673.309,2365.522
			c0,0,149.698-66.212,233.036-100.088c83.337-33.875,301.713-147.051,393.538-203.253
			c91.825-56.201,313.285-230.971,351.868-271.005"/>
	</g>
	<path fill="none" stroke="#000000" stroke-width="3" stroke-linecap="round" stroke-linejoin="round" stroke-miterlimit="10" d="
		M769.124,390.308c0,0,17.855-18.557,27.526-23.753"/>
	<path fill="none" stroke="#000000" stroke-width="3" stroke-linecap="round" stroke-linejoin="round" stroke-miterlimit="10" d="
		M781.771,405.896c0,0,16.367-17.072,26.783-23.753"/>
	<path fill="none" stroke="#000000" stroke-width="3" stroke-linecap="round" stroke-linejoin="round" stroke-miterlimit="10" d="
		M803.346,419.257c0,0,12.647-12.619,23.807-20.042"/>
	<path fill="none" stroke="#000000" stroke-width="3" stroke-linecap="round" stroke-linejoin="round" stroke-miterlimit="10" d="
		M818.97,440.783c0,0,11.903-15.587,23.063-21.526"/>
	<path fill="none" stroke="#000000" stroke-width="3" stroke-linecap="round" stroke-linejoin="round" stroke-miterlimit="10" d="
		M255.629,746.852c0,0,56.347-0.488,66.636-4.888"/>
	<path fill="none" stroke="#000000" stroke-width="3" stroke-linecap="round" stroke-linejoin="round" stroke-miterlimit="10" d="
		M302.667,718.987c0,0,34.788,4.889,13.719,51.82"/>
	<path fill="none" stroke="#000000" stroke-width="3" stroke-linecap="round" stroke-linejoin="round" stroke-miterlimit="10" d="
		M1899.994,1430.308c0.378-0.507,0.896-0.967,1.576-1.361c3.863-2.236,11.673-0.9,15.957-0.385
		c6.788,0.817,13.355,3.129,18.818,7.304c15.975,12.208,13.936,27.467-18.013,13.564c-5.849-2.065-12.19-5.085-16.279-9.881
		C1899.897,1437.019,1897.989,1432.999,1899.994,1430.308z"/>
	<path fill="none" stroke="#000000" stroke-width="3" stroke-linecap="round" stroke-linejoin="round" stroke-miterlimit="10" d="
		M1991.497,1444.508c-0.64,1.096-0.33,2.718,1.538,5.092c5.289,6.722,12.192,9.361,20.029,12.318
		c8.12,3.065,22.689,8.541,30.342,1.414c4.253-3.961-14.662-12.363-16.516-13.179c-7.525-3.317-15.264-6.963-23.575-7.595
		C1999.184,1442.245,1992.938,1442.043,1991.497,1444.508z"/>
	<path fill="none" stroke="#000000" stroke-width="3" stroke-linecap="round" stroke-linejoin="round" stroke-miterlimit="10" d="
		M2391.844,567.431c-0.686,0.661-1.134,1.757-1.234,3.426c-0.372,6.256,2.925,12.83,6.568,17.739
		c4.287,5.777,10.328,10.816,16.193,14.929c2.814,1.973,11.699,8.445,15.482,5.855c3.435-2.351,0.434-8.652-0.872-11.336
		c-5.314-10.925-14.759-19.524-24.24-26.853C2400.621,568.779,2394.482,564.884,2391.844,567.431z"/>
	<path fill="none" stroke="#000000" stroke-width="3" stroke-linecap="round" stroke-linejoin="round" stroke-miterlimit="10" d="
		M2492.896,670.124c-4.792-9.074-11.925-20.718-15.968-17.021c-12.495,11.424,8.055,35.227,16.527,42.974
		c2.871,2.625,8.488,6.579,11.479,1.523c2.914-4.925-5.085-13.955-7.28-18.017C2497.116,678.59,2495.301,674.681,2492.896,670.124z"
		/>
	<rect fill="none" width="3543" height="3535"/>
</g>
</svg>
