<?xml version="1.0" encoding="utf-8"?>
<!-- Generator: Adobe Illustrator 15.0.1, SVG Export Plug-In . SVG Version: 6.00 Build 0)  -->
<!DOCTYPE svg PUBLIC "-//W3C//DTD SVG 1.1//EN" "http://www.w3.org/Graphics/SVG/1.1/DTD/svg11.dtd">
<svg version="1.1" id="Слой_1" xmlns="http://www.w3.org/2000/svg" xmlns:xlink="http://www.w3.org/1999/xlink" x="0px" y="0px"
	 width="3543px" height="3535px" viewBox="0 0 3543 3535" enable-background="new 0 0 3543 3535" xml:space="preserve">
<g id="black">
	<path fill="none" stroke="#000000" stroke-width="3" stroke-linecap="round" stroke-linejoin="round" stroke-miterlimit="10" d="
		M808.489,269.081c0,0,116.325,91.233,229.178,415.169c0,0,89.704,203.831,115.168,568.187c0,0,15.626,252.335-8.102,472.334
		c0,0-28.358,360.313-59.031,484.46"/>
	<path fill="none" stroke="#000000" stroke-width="3" stroke-linecap="round" stroke-linejoin="round" stroke-miterlimit="10" d="
		M815.241,275.625c0,0-31.251,193.63-39.74,295.642c0,0-20.063,209.798-10.803,338.372c0,0,1.929,199.019,46.684,249.063"/>
	<path fill="none" stroke="#000000" stroke-width="3" stroke-linecap="round" stroke-linejoin="round" stroke-miterlimit="10" d="
		M625.673,1742.267c0,0,240.8-19.771,371.109-57.518c130.309-37.746,255.208-112.037,375.309-209.698
		s165.735-184.537,166.936-191.726"/>
	<path fill="none" stroke="#000000" stroke-width="3" stroke-linecap="round" stroke-linejoin="round" stroke-miterlimit="10" d="
		M642.478,1740.47c0,0,162.136-140.199,248.607-188.131c0,0,133.908-77.889,174.142-95.864s190.353-86.274,244.398-102.451
		c54.045-16.177,247.669-67.296,287.04-76.091c0,0,122.501-25.164,148.323-26.961c0,0,111.093-12.581,127.906-12.581
		s36.03-0.6,41.435,2.995"/>
	<path fill="none" stroke="#000000" stroke-width="3" stroke-linecap="round" stroke-linejoin="round" stroke-miterlimit="10" d="
		M1559.105,1477.825c0,0,87.967-214.803,115.746-251.758c0,0,102.278-182.469,127.321-214.803
		c26.236-33.875,87.195-130.883,132.723-180.927c0,0,127.321-147.82,141.211-157.059s111.889-107.786,140.44-125.494
		c28.551-17.708,178.837-136.607,226.095-159.371c44.755-21.557,131.18-65.441,182.107-87.769c0,0,91.054-37.726,104.943-41.576
		c13.89-3.849,88.739-23.867,99.542-23.867s125.006-29.256,131.951-31.566"/>
	<path fill="none" stroke="#000000" stroke-width="3" stroke-linecap="round" stroke-linejoin="round" stroke-miterlimit="10" d="
		M1671.09,2369.348c0,0,114.69-232.497,273.072-416.858c0,0,228.472-264.28,459.673-383.253c0,0,102.521-59.115,120.452-64.396
		c17.931-5.281,235.109-104.583,330.021-124.215c71.566-14.804,184.615-54.278,324.669-42.729"/>
	<path fill="none" stroke="#000000" stroke-width="3" stroke-linecap="round" stroke-linejoin="round" stroke-miterlimit="10" d="
		M1673.309,2365.522c0,0,149.698-66.212,233.036-100.088c83.337-33.875,301.713-147.051,393.538-203.253
		c91.825-56.201,313.285-230.971,351.868-271.005"/>
</g>
<g id="green_x5F_small">
	<path fill="none" stroke="#95A441" stroke-width="15" stroke-linecap="round" stroke-linejoin="round" stroke-miterlimit="10" d="
		M785.641,1509.103c0,0,332.983-166.492,817.459-253.487c0,0,870.9-167.616,1217.9-146.616"/>
	<path fill="none" stroke="#95A441" stroke-width="15" stroke-linecap="round" stroke-linejoin="round" stroke-miterlimit="10" d="
		M1568,2320c0,0,430-660,1058-928"/>
	<path fill="none" stroke="#95A441" stroke-width="15" stroke-linecap="round" stroke-linejoin="round" stroke-miterlimit="10" d="
		M2632,1714c0,0,264-2,404-28"/>
	<path fill="none" stroke="#95A441" stroke-width="15" stroke-linecap="round" stroke-linejoin="round" stroke-miterlimit="10" d="
		M298.554,533.609c0,0,204.309,337.734,247.394,405.837"/>
</g>
<g id="green_x5F_big">
	
		<line fill="none" stroke="#BAC654" stroke-width="55" stroke-linecap="round" stroke-linejoin="round" stroke-miterlimit="10" x1="1488" y1="1980" x2="1796" y2="1410"/>
	<path fill="none" stroke="#BAC654" stroke-width="55" stroke-linecap="round" stroke-linejoin="round" stroke-miterlimit="10" d="
		M1836,1512c0,0,348,66,538,204"/>
	<path fill="none" stroke="#BAC654" stroke-width="55" stroke-linecap="round" stroke-linejoin="round" stroke-miterlimit="10" d="
		M1790,1628c0,0,268,30,484,192"/>
	<path fill="none" stroke="#BAC654" stroke-width="55" stroke-linecap="round" stroke-linejoin="round" stroke-miterlimit="10" d="
		M942,648c0,0,190,372,64,944"/>
	<path fill="none" stroke="#BAC654" stroke-width="55" stroke-linecap="round" stroke-linejoin="round" stroke-miterlimit="10" d="
		M432,1346c0,0,124,16,462-198"/>
</g>
<g id="red_x5F_big">
	<path fill="none" stroke="#C14C51" stroke-width="55" stroke-linecap="round" stroke-linejoin="round" stroke-miterlimit="10" d="
		M2404,594c0,0-316,326-478,834"/>
	<path fill="none" stroke="#C14C51" stroke-width="55" stroke-linecap="round" stroke-linejoin="round" stroke-miterlimit="10" d="
		M2022,1444c0,0,268-658,460-762"/>
	<path fill="none" stroke="#C14C51" stroke-width="40" stroke-linecap="round" stroke-linejoin="round" stroke-miterlimit="10" d="
		M1337.227,1220.883c0,0-1.369-704.206,430.196-502.809"/>
	<path fill="none" stroke="#C14C51" stroke-width="40" stroke-linecap="round" stroke-linejoin="round" stroke-miterlimit="10" d="
		M305.968,742.527c0,0,185.539-5.347,292.434-174.85"/>
	<path fill="none" stroke="#C14C51" stroke-width="55" stroke-linecap="round" stroke-linejoin="round" stroke-miterlimit="10" d="
		M676.548,1539.904c0,0-8.761-220.781-289.119-369.721"/>
	<path fill="none" stroke="#C14C51" stroke-width="40" stroke-linecap="round" stroke-linejoin="round" stroke-miterlimit="10" d="
		M553.891,1899.111c0,0-622.043-173.473,357.456-606.273"/>
	<path fill="none" stroke="#C14C51" stroke-width="40" stroke-linecap="round" stroke-linejoin="round" stroke-miterlimit="10" d="
		M2244.798,1205.229c0,0,31.54-138.426,190.993-271.596"/>
	<path fill="none" stroke="#C14C51" stroke-width="40" stroke-linecap="round" stroke-linejoin="round" stroke-miterlimit="10" d="
		M2977.234,1900.864c0,0-166.463-110.391-154.197-273.348"/>
	<path fill="none" stroke="#C14C51" stroke-width="40" stroke-linecap="round" stroke-linejoin="round" stroke-miterlimit="10" d="
		M2521.652,2256.567c0,0,706.155-325.913-392.5-769.23"/>
	<path fill="none" stroke="#C14C51" stroke-width="40" stroke-linecap="round" stroke-linejoin="round" stroke-miterlimit="10" d="
		M2151.937,1948.176c0,0-22.779-103.382,120.904-210.268"/>
</g>
<rect fill="none" width="3543" height="3535"/>
<g id="black_x5F_mini">
	<path fill="none" stroke="#000000" stroke-width="4" stroke-linecap="round" stroke-linejoin="round" stroke-miterlimit="10" d="
		M3059.643,143.584"/>
	<path fill="none" stroke="#000000" stroke-width="4" stroke-linecap="round" stroke-linejoin="round" stroke-miterlimit="10" d="
		M1026.514,2275.635c0,0,29.516-53.701,73.499-70.446s74.078,13.858,74.078,13.858"/>
	<path fill="none" stroke="#000000" stroke-width="4" stroke-linecap="round" stroke-linejoin="round" stroke-miterlimit="10" d="
		M2960.643,143.584c0,0-9.554,38.593,3.468,64.289c13.021,25.696,34.435,20.788,34.435,20.788"/>
	<path fill="none" stroke="#000000" stroke-width="4" stroke-linecap="round" stroke-linejoin="round" stroke-miterlimit="10" d="
		M2950.312,1759.773c0,0-54.145-57.226-11.013-117.655c0,0,22.025,44.865,5.048,105.752l-0.624,2.019"/>
	<path fill="none" stroke="#000000" stroke-width="4" stroke-linecap="round" stroke-linejoin="round" stroke-miterlimit="10" d="
		M2387.236,1056.727c0,0,4.668,69.47-56.4,127.684c0,0-14.002-69.858,52.122-122.638l3.747-3.062"/>
	<path fill="none" stroke="#000000" stroke-width="4" stroke-linecap="round" stroke-linejoin="round" stroke-miterlimit="10" d="
		M269.92,661.109c0,0,37.413,19.105,79.833,1.764c42.421-17.342,53.91-45.852,53.91-45.852s-44.482-16.459-123.727,45.558
		l-1.373,0.883"/>
	<path fill="none" stroke="#000000" stroke-width="4" stroke-linecap="round" stroke-linejoin="round" stroke-miterlimit="10" d="
		M431.577,1280.287c0,0,95.491,23.386,121.534,120.682"/>
	<path fill="none" stroke="#000000" stroke-width="4" stroke-linecap="round" stroke-linejoin="round" stroke-miterlimit="10" d="
		M645.865,1551.543c0,0,2.148-34.363,26.333-37.244c19.388-2.31,24.307,10.394,24.307,10.394"/>
	
		<line fill="none" stroke="#000000" stroke-width="4" stroke-linecap="round" stroke-linejoin="round" stroke-miterlimit="10" x1="669.883" y1="1514.876" x2="684.062" y2="1580.125"/>
	<path fill="none" stroke="#000000" stroke-width="4" stroke-linecap="round" stroke-linejoin="round" stroke-miterlimit="10" d="
		M348.487,1638.104c0,0,30.888-46.575,30.423-32.44"/>
	<path fill="none" stroke="#000000" stroke-width="4" stroke-linecap="round" stroke-linejoin="round" stroke-miterlimit="10" d="
		M369.621,1649.688c0,0,10.683-24.793,24.153-33.135"/>
	<path fill="none" stroke="#000000" stroke-width="4" stroke-linecap="round" stroke-linejoin="round" stroke-miterlimit="10" d="
		M400.973,1655.018c0,0,6.503-18.769,17.883-24.793"/>
	<path fill="none" stroke="#000000" stroke-width="4" stroke-linecap="round" stroke-linejoin="round" stroke-miterlimit="10" d="
		M420.249,1667.531c0,0,11.612-19.695,21.83-26.878"/>
	<path fill="none" stroke="#000000" stroke-width="4" stroke-linecap="round" stroke-linejoin="round" stroke-miterlimit="10" d="
		M2222.622,1188.342c0,0,37.907-13.281,47.745,28.005"/>
	<path fill="none" stroke="#000000" stroke-width="4" stroke-linecap="round" stroke-linejoin="round" stroke-miterlimit="10" d="
		M3187.98,1379.359c0,0-33.098-58.628,33.712-106.867"/>
	<path fill="none" stroke="#000000" stroke-width="4" stroke-linecap="round" stroke-linejoin="round" stroke-miterlimit="10" d="
		M253.077,745.312c0,0,56.924-1.979,68.257-3.312"/>
	<path fill="none" stroke="#000000" stroke-width="4" stroke-linecap="round" stroke-linejoin="round" stroke-miterlimit="10" d="
		M303.333,718.667c0,0,35.333,16.667,12.667,52.667"/>
	<path fill="none" stroke="#000000" stroke-width="4" stroke-linecap="round" stroke-linejoin="round" stroke-miterlimit="10" d="
		M770.871,389.465c0,0,20.135-19.619,24.782-22.201"/>
	<path fill="none" stroke="#000000" stroke-width="4" stroke-linecap="round" stroke-linejoin="round" stroke-miterlimit="10" d="
		M782.746,405.986c0,0,16.005-16.521,24.266-22.2"/>
	<path fill="none" stroke="#000000" stroke-width="4" stroke-linecap="round" stroke-linejoin="round" stroke-miterlimit="10" d="
		M803.397,418.894c0,0,16.521-15.488,24.266-20.651"/>
	<path fill="none" stroke="#000000" stroke-width="4" stroke-linecap="round" stroke-linejoin="round" stroke-miterlimit="10" d="
		M820.951,441.61c0,0,12.391-20.135,22.717-22.2"/>
	<path fill="none" stroke="#000000" stroke-width="4" stroke-linecap="round" stroke-linejoin="round" stroke-miterlimit="10" d="
		M2303.213,1715.29c0,0-30.977,26.331-47.498,33.042"/>
	<path fill="none" stroke="#000000" stroke-width="4" stroke-linecap="round" stroke-linejoin="round" stroke-miterlimit="10" d="
		M2259.328,1719.937c0,0-27.88,38.722,29.429,38.722"/>
	<path fill="none" stroke="#000000" stroke-width="4" stroke-linecap="round" stroke-linejoin="round" stroke-miterlimit="10" d="
		M2823.063,1555.028c0,0,5.216,69.913-0.464,80.239"/>
	<path fill="none" stroke="#000000" stroke-width="4" stroke-linecap="round" stroke-linejoin="round" stroke-miterlimit="10" d="
		M2791.621,1619.262c0,0,37.174,39.754,55.243-9.293"/>
	<path fill="none" stroke="#000000" stroke-width="4" stroke-linecap="round" stroke-linejoin="round" stroke-miterlimit="10" d="
		M2734.313,1375.058c0,0,17.553-2.582,28.396-4.13"/>
	<path fill="none" stroke="#000000" stroke-width="4" stroke-linecap="round" stroke-linejoin="round" stroke-miterlimit="10" d="
		M2737.411,1395.193c0,0,19.102-3.614,25.298-0.516"/>
	<path fill="none" stroke="#000000" stroke-width="4" stroke-linecap="round" stroke-linejoin="round" stroke-miterlimit="10" d="
		M2745.155,1422.557c0,0,14.973,1.549,23.233-0.516"/>
	<path fill="none" stroke="#000000" stroke-width="4" stroke-linecap="round" stroke-linejoin="round" stroke-miterlimit="10" d="
		M2742.574,1444.757c0,0,16.004,3.097,36.14,1.032"/>
	<path fill="none" stroke="#000000" stroke-width="4" stroke-linecap="round" stroke-linejoin="round" stroke-miterlimit="10" d="
		M2220.278,1247.427c0,0,20.88-50.948,25.892-57.629"/>
</g>
<g id="red_x5F_mini">
	<path fill="none" stroke="#CA2328" stroke-width="7" stroke-linecap="round" stroke-linejoin="round" stroke-miterlimit="10" d="
		M2952.844,1637.549c0,0,27.982,45.817,4.305,108.814"/>
	<path fill="none" stroke="#CA2328" stroke-width="7" stroke-linecap="round" stroke-linejoin="round" stroke-miterlimit="10" d="
		M2978.674,1644.708c0,0,26.547,27.919,3.588,99.506"/>
	
		<ellipse fill="none" stroke="#CA2328" stroke-width="7" stroke-linecap="round" stroke-linejoin="round" stroke-miterlimit="10" cx="3052.981" cy="1688.813" rx="9.54" ry="8.767"/>
	
		<ellipse fill="none" stroke="#CA2328" stroke-width="7" stroke-linecap="round" stroke-linejoin="round" stroke-miterlimit="10" cx="2823.063" cy="1545.836" rx="8.206" ry="9.192"/>
	<path fill="none" stroke="#CA2328" stroke-width="7" stroke-linecap="round" stroke-linejoin="round" stroke-miterlimit="10" d="
		M2745.507,1322.305c0,0,11.574,179.58,25.464,206.141"/>
	<path fill="none" stroke="#CA2328" stroke-width="7" stroke-linecap="round" stroke-linejoin="round" stroke-miterlimit="10" d="
		M2653.479,1383.54c2.254,5.332-0.786,11.701-6.787,14.227c-6.004,2.527-12.696,0.253-14.95-5.079
		c-2.256-5.332,0.783-11.703,6.787-14.229C2644.53,1375.933,2651.225,1378.207,2653.479,1383.54z"/>
	<path fill="none" stroke="#CA2328" stroke-width="7" stroke-linecap="round" stroke-linejoin="round" stroke-miterlimit="10" d="
		M2793.51,1086.765c0,0,84.055,46.849,107.822,60.151"/>
	<path fill="none" stroke="#CA2328" stroke-width="7" stroke-linecap="round" stroke-linejoin="round" stroke-miterlimit="10" d="
		M2415.556,1062.473c0,0,8.116,72.298-48.114,131.292"/>
	
		<ellipse fill="none" stroke="#CA2328" stroke-width="7" stroke-linecap="round" stroke-linejoin="round" stroke-miterlimit="10" cx="2216.589" cy="1255.702" rx="9.74" ry="9.813"/>
	<path fill="none" stroke="#CA2328" stroke-width="7" stroke-linecap="round" stroke-linejoin="round" stroke-miterlimit="10" d="
		M1916.454,1238.475c0,0,2.93-10.36,15.176-11.422c12.246-1.063-3.727,17.266-3.461,16.735S1916.454,1256.538,1916.454,1238.475z"/>
	<path fill="none" stroke="#CA2328" stroke-width="7" stroke-linecap="round" stroke-linejoin="round" stroke-miterlimit="10" d="
		M1544.183,1487.035c-2.966,5.931-2.252,12.29,1.594,14.204c3.847,1.915,9.367-1.342,12.333-7.273
		c2.965-5.931,2.25-12.291-1.595-14.205C1552.668,1477.847,1547.147,1481.103,1544.183,1487.035z"/>
	<path fill="none" stroke="#CA2328" stroke-width="7" stroke-linecap="round" stroke-linejoin="round" stroke-miterlimit="10" d="
		M698.255,1593.626c-1.968,6.464-9.907,11.397-16.537,9.388c-6.63-2.01-6.53-8.329-4.563-14.793
		c1.969-6.465,10.192-10.544,16.822-8.534C700.607,1581.696,700.224,1587.162,698.255,1593.626z"/>
	<path fill="none" stroke="#CA2328" stroke-width="7" stroke-linecap="round" stroke-linejoin="round" stroke-miterlimit="10" d="
		M760.126,1514.257c0,0,4.562-3.414,9.979-3.982c3.232-0.34,10.706-5.789,11.404,7.681c0.855,16.5-16.252,21.051-21.954,14.224
		C755.279,1527.058,756.42,1521.654,760.126,1514.257z"/>
	<path fill="none" stroke="#CA2328" stroke-width="7" stroke-linecap="round" stroke-linejoin="round" stroke-miterlimit="10" d="
		M419.527,1262.184c0,0,14.462-7.771,12.905,9.324c-1.558,17.094-18.913,7.326-18.913,4.44S411.962,1267.067,419.527,1262.184z"/>
	<path fill="none" stroke="#CA2328" stroke-width="7" stroke-linecap="round" stroke-linejoin="round" stroke-miterlimit="10" d="
		M556.624,1398.482c3.936-0.652,8.606,1.081,10.684,4.406c5.57,8.918-11.99,24.549-17.219,11.802
		c-1.862-4.541-1.224-11.026,2.548-14.386C553.737,1399.323,555.127,1398.73,556.624,1398.482z"/>
	
		<ellipse fill="none" stroke="#CA2328" stroke-width="7" stroke-linecap="round" stroke-linejoin="round" stroke-miterlimit="10" cx="243.008" cy="745.312" rx="10.068" ry="12.271"/>
	<path fill="none" stroke="#CA2328" stroke-width="7" stroke-linecap="round" stroke-linejoin="round" stroke-miterlimit="10" d="
		M267.161,640.719c0,0,29.625-28.117,58.166-36.768c28.541-8.651,49.856-8.651,49.856-8.651"/>
	<path fill="none" stroke="#CA2328" stroke-width="7" stroke-linecap="round" stroke-linejoin="round" stroke-miterlimit="10" d="
		M264.271,618.01c0,0,26.374-28.117,53.47-34.965c27.096-6.849,49.856-3.965,49.856-3.965"/>
	
		<ellipse fill="none" stroke="#CA2328" stroke-width="7" stroke-linecap="round" stroke-linejoin="round" stroke-miterlimit="10" cx="292.812" cy="519.603" rx="10.477" ry="11.174"/>
	<path fill="none" stroke="#CA2328" stroke-width="7" stroke-linecap="round" stroke-linejoin="round" stroke-miterlimit="10" d="
		M532.881,953.656c0,0,20.54-15.892,48.204-24.256"/>
	
		<ellipse fill="none" stroke="#CA2328" stroke-width="7" stroke-linecap="round" stroke-linejoin="round" stroke-miterlimit="10" cx="1559.475" cy="2335.863" rx="11.555" ry="12.73"/>
	<path fill="none" stroke="#CA2328" stroke-width="7" stroke-linecap="round" stroke-linejoin="round" stroke-miterlimit="10" d="
		M2323.094,1708.237c0,5.306-4.045,11.049-9.629,11.049s-10.593-4.302-10.593-9.607c0-5.307,7.058-9.41,12.519-10.569
		C2324.446,1697.188,2323.094,1702.931,2323.094,1708.237z"/>
	<path fill="none" stroke="#CA2328" stroke-width="7" stroke-linecap="round" stroke-linejoin="round" stroke-miterlimit="10" d="
		M743.249,336.238c0,0,65.972,79.681,159.722,152.433"/>
	<path fill="none" stroke="#CA2328" stroke-width="7" stroke-linecap="round" stroke-linejoin="round" stroke-miterlimit="10" d="
		M330.084,1581.576c0,0,83.244,64.802,150.022,110.438"/>
	<path fill="none" stroke="#CA2328" stroke-width="7" stroke-linecap="round" stroke-linejoin="round" stroke-miterlimit="10" d="
		M2628.912,1688.359c0,0,7.318,22.817-2.744,54.762"/>
</g>
</svg>
